<?xml version="1.0" encoding="utf-8"?>
<!-- Generator: Adobe Illustrator 26.1.0, SVG Export Plug-In . SVG Version: 6.00 Build 0)  -->
<svg version="1.1" id="Layer_1" xmlns="http://www.w3.org/2000/svg" xmlns:xlink="http://www.w3.org/1999/xlink" x="0px" y="0px"
	 viewBox="0 0 80 80" style="enable-background:new 0 0 80 80;" xml:space="preserve">
<style type="text/css">
	.st0{fill:#D6E1EA;}
	.st1{clip-path:url(#SVGID_00000182504165597996606770000016929700828966032003_);}
	.st2{fill:#549AD3;}
	.st3{fill:#333A48;}
	.st4{fill:#FFFFFF;}
</style>
<circle class="st0" cx="40" cy="40" r="40"/>
<g>
	<defs>
		<circle id="SVGID_1_" cx="40" cy="40" r="40"/>
	</defs>
	<clipPath id="SVGID_00000038402529041773946480000014895605080133246385_">
		<use xlink:href="#SVGID_1_"  style="overflow:visible;"/>
	</clipPath>
	<g style="clip-path:url(#SVGID_00000038402529041773946480000014895605080133246385_);">
		<path class="st2" d="M26,14.7H54c2.9,0,5.3,2.4,5.3,5.3v62.5c0,2.9-2.4,5.3-5.3,5.3H26c-2.9,0-5.3-2.4-5.3-5.3V20
			C20.7,17.1,23.1,14.7,26,14.7z"/>
		<path class="st3" d="M54,15.8c2.3,0,4.2,1.9,4.2,4.2c0,0,0,0,0,0v62.5c0,2.3-1.9,4.2-4.2,4.2c0,0,0,0,0,0H26
			c-2.3,0-4.2-1.9-4.2-4.2V20c0-2.3,1.9-4.2,4.2-4.2H54 M54,13.7H26c-3.5,0-6.3,2.8-6.3,6.3c0,0,0,0,0,0v62.5c0,3.5,2.8,6.3,6.3,6.3
			c0,0,0,0,0,0h28c3.5,0,6.3-2.8,6.3-6.3V20C60.3,16.5,57.5,13.7,54,13.7z"/>
		<path class="st3" d="M31.6,13.7h16.8c1.2,0,2.1,0.9,2.1,2.1l0,0c0,1.2-0.9,2.1-2.1,2.1H31.6c-1.2,0-2.1-0.9-2.1-2.1l0,0
			C29.5,14.6,30.4,13.7,31.6,13.7z"/>
		<g>
			<g>
				<path class="st4" d="M56,30c0,1.1-0.9,2-2,2H26c-1.1,0-2-0.9-2-2v-6c0-1.1,0.9-2,2-2h28c1.1,0,2,0.9,2,2V30z"/>
			</g>
			<path class="st3" d="M29.7,26.5l1-0.3l0.2,0.7l-1,0.3l0.6,0.9L30,28.5l-0.6-0.8l-0.6,0.9l-0.6-0.5l0.6-0.9l-1-0.3l0.2-0.7l1,0.3
				v-1h0.8L29.7,26.5z"/>
			<path class="st3" d="M33.5,26.5l1-0.3l0.2,0.7l-1,0.3l0.6,0.9l-0.6,0.5l-0.6-0.8l-0.6,0.9l-0.6-0.5l0.6-0.9l-1-0.3l0.2-0.7l1,0.3
				v-1h0.8L33.5,26.5z"/>
			<path class="st3" d="M37.3,26.5l1-0.3l0.2,0.7l-1,0.3l0.6,0.9l-0.6,0.5l-0.6-0.8l-0.6,0.9l-0.6-0.5l0.6-0.9l-1-0.3l0.2-0.7l1,0.3
				v-1h0.8L37.3,26.5z"/>
			<path class="st3" d="M43.5,26.5l1-0.3l0.2,0.7l-1,0.3l0.6,0.9l-0.6,0.5l-0.6-0.8l-0.6,0.9l-0.6-0.5l0.6-0.9l-1-0.3l0.2-0.7l1,0.3
				v-1h0.8L43.5,26.5z"/>
			<path class="st3" d="M47.3,26.5l1-0.3l0.2,0.7l-1,0.3l0.6,0.9l-0.6,0.5l-0.6-0.8l-0.6,0.9l-0.6-0.5l0.6-0.9l-1-0.3l0.2-0.7l1,0.3
				v-1h0.8V26.5z"/>
			<path class="st3" d="M51.1,26.5l1-0.3l0.2,0.7l-1,0.3l0.6,0.9l-0.6,0.5l-0.6-0.8l-0.6,0.9l-0.6-0.5l0.6-0.9l-1-0.3l0.2-0.7l1,0.3
				v-1h0.8V26.5z"/>
		</g>
	</g>
</g>
</svg>
